<svg width="17.266602" height="17.500000" viewBox="0 0 17.2666 17.5" fill="none" xmlns="http://www.w3.org/2000/svg" xmlns:xlink="http://www.w3.org/1999/xlink">
	<desc>
			Created with Pixso.
	</desc>
	<defs/>
	<path id="Vector" d="M1.66 11.66L1.66 1.66L0 1.66L0 0L2.5 0C2.72 0 2.93 0.08 3.08 0.24C3.24 0.4 3.33 0.61 3.33 0.83L3.33 10.83L13.69 10.83L15.36 4.16L5 4.16L5 2.5L16.43 2.5C16.56 2.5 16.68 2.52 16.79 2.58C16.91 2.63 17.01 2.72 17.09 2.82C17.16 2.92 17.22 3.03 17.24 3.16C17.27 3.28 17.27 3.41 17.24 3.53L15.15 11.86C15.11 12.04 15 12.2 14.86 12.32C14.71 12.43 14.53 12.5 14.35 12.5L2.5 12.5C2.27 12.5 2.06 12.41 1.91 12.25C1.75 12.09 1.66 11.88 1.66 11.66ZM3.33 17.5C2.89 17.5 2.46 17.32 2.15 17.01C1.84 16.69 1.66 16.27 1.66 15.83C1.66 15.39 1.84 14.96 2.15 14.65C2.46 14.34 2.89 14.16 3.33 14.16C3.77 14.16 4.19 14.34 4.51 14.65C4.82 14.96 5 15.39 5 15.83C5 16.27 4.82 16.69 4.51 17.01C4.19 17.32 3.77 17.5 3.33 17.5ZM13.33 17.5C12.89 17.5 12.46 17.32 12.15 17.01C11.84 16.69 11.66 16.27 11.66 15.83C11.66 15.39 11.84 14.96 12.15 14.65C12.46 14.34 12.89 14.16 13.33 14.16C13.77 14.16 14.19 14.34 14.51 14.65C14.82 14.96 15 15.39 15 15.83C15 16.27 14.82 16.69 14.51 17.01C14.19 17.32 13.77 17.5 13.33 17.5Z" fill="#FFFFFF" fill-opacity="1.000000" fill-rule="nonzero"/>
</svg>
